<svg width="19" height="20" viewBox="0 0 19 20" fill="none" xmlns="http://www.w3.org/2000/svg">
<path fill-rule="evenodd" clip-rule="evenodd" d="M9.5 0C7.9833 0 6.54784 0.704863 5.50295 1.92617C4.94202 2.5818 4.54586 3.67383 4.28807 4.73752C4.27621 4.78643 4.26461 4.83547 4.25325 4.88462H2.19231L0 19.5H19L16.8077 4.88462H14.7467C14.7354 4.83547 14.7238 4.78643 14.7119 4.73752C14.4541 3.67383 14.058 2.5818 13.497 1.92617C12.4522 0.704864 11.0167 0 9.5 0ZM13.7183 4.88462C13.4684 3.88465 13.1242 3.02863 12.7372 2.57626C11.8634 1.555 10.6967 1 9.5 1C8.30334 1 7.13655 1.555 6.2628 2.57626C5.87578 3.02863 5.53162 3.88465 5.2817 4.88462H13.7183Z" fill="#63C1FF"/>
</svg>
